<svg clip-rule="evenodd" fill-rule="evenodd" stroke-linejoin="round" stroke-miterlimit="2" viewBox="0 0 600 600" xmlns="http://www.w3.org/2000/svg"><g fill="#111"><path d="m354.073 108.734h-95.906v471.952h95.906z" transform="matrix(.0659718 0 0 .0329859 279.805 284.664)"/><path d="m390.827 155.19h-176.045v77.644h176.045z" transform="matrix(.0659718 0 0 .0659718 280.023 281.059)"/><path d="m354.073 108.734h-95.906v471.952h95.906z" transform="matrix(0 .0659718 -.0329859 0 319.154 283.623)"/><path d="m390.827 155.19h-176.045v77.644h176.045z" transform="matrix(0 .0659718 -.0659718 0 322.759 283.842)"/><path d="m354.073 108.734h-95.906v471.952h95.906z" transform="matrix(-.0659718 0 0 -.0329859 320.195 322.973)"/><path d="m390.827 155.19h-176.045v77.644h176.045z" transform="matrix(-.0659718 0 0 -.0659718 319.977 326.578)"/><path d="m354.073 108.734h-95.906v471.952h95.906z" transform="matrix(0 -.0659718 .0329859 0 280.846 324.014)"/><path d="m390.827 155.19h-176.045v77.644h176.045z" transform="matrix(0 -.0659718 .0659718 0 277.241 323.795)"/><path d="m354.073 108.734h-95.906v471.952h95.906z" transform="matrix(.0659718 0 0 .0329859 426.421 284.664)"/><path d="m390.827 155.19h-176.045v77.644h176.045z" transform="matrix(.0659718 0 0 .0659718 426.639 281.059)"/><path d="m354.073 108.734h-95.906v471.952h95.906z" transform="matrix(0 .0659718 -.0329859 0 465.77 283.623)"/><path d="m390.827 155.19h-176.045v77.644h176.045z" transform="matrix(0 .0659718 -.0659718 0 469.375 283.842)"/><path d="m354.073 108.734h-95.906v471.952h95.906z" transform="matrix(-.0659718 0 0 -.0329859 466.811 322.973)"/><path d="m390.827 155.19h-176.045v77.644h176.045z" transform="matrix(-.0659718 0 0 -.0659718 466.593 326.578)"/><path d="m354.073 108.734h-95.906v471.952h95.906z" transform="matrix(0 -.0659718 .0329859 0 427.462 324.014)"/><path d="m390.827 155.19h-176.045v77.644h176.045z" transform="matrix(0 -.0659718 .0659718 0 423.857 323.795)"/><path d="m354.073 108.734h-95.906v471.952h95.906z" transform="matrix(.0659718 0 0 .0329859 353.113 284.664)"/><path d="m390.827 155.19h-176.045v77.644h176.045z" transform="matrix(.0659718 0 0 .0659718 353.331 281.059)"/><path d="m354.073 108.734h-95.906v471.952h95.906z" transform="matrix(0 .0659718 -.0329859 0 392.462 283.623)"/><path d="m390.827 155.19h-176.045v77.644h176.045z" transform="matrix(0 .0659718 -.0659718 0 396.067 283.842)"/><path d="m354.073 108.734h-95.906v471.952h95.906z" transform="matrix(-.0659718 0 0 -.0329859 393.503 322.973)"/><path d="m390.827 155.19h-176.045v77.644h176.045z" transform="matrix(-.0659718 0 0 -.0659718 393.285 326.578)"/><path d="m354.073 108.734h-95.906v471.952h95.906z" transform="matrix(0 -.0659718 .0329859 0 354.154 324.014)"/><path d="m390.827 155.19h-176.045v77.644h176.045z" transform="matrix(0 -.0659718 .0659718 0 350.549 323.795)"/><path d="m354.073 108.734h-95.906v471.952h95.906z" transform="matrix(.0659718 0 0 .0329859 59.8808 284.664)"/><path d="m390.827 155.19h-176.045v77.644h176.045z" transform="matrix(.0659718 0 0 .0659718 60.0995 281.059)"/><path d="m354.073 108.734h-95.906v471.952h95.906z" transform="matrix(0 .0659718 -.0329859 0 99.2305 283.623)"/><path d="m390.827 155.19h-176.045v77.644h176.045z" transform="matrix(0 .0659718 -.0659718 0 102.835 283.842)"/><path d="m354.073 108.734h-95.906v471.952h95.906z" transform="matrix(-.0659718 0 0 -.0329859 100.271 322.973)"/><path d="m390.827 155.19h-176.045v77.644h176.045z" transform="matrix(-.0659718 0 0 -.0659718 100.053 326.578)"/><path d="m354.073 108.734h-95.906v471.952h95.906z" transform="matrix(0 -.0659718 .0329859 0 60.9216 324.014)"/><path d="m390.827 155.19h-176.045v77.644h176.045z" transform="matrix(0 -.0659718 .0659718 0 57.317 323.795)"/><path d="m354.073 108.734h-95.906v471.952h95.906z" transform="matrix(.0659718 0 0 .0329859 206.497 284.664)"/><path d="m390.827 155.19h-176.045v77.644h176.045z" transform="matrix(.0659718 0 0 .0659718 206.715 281.059)"/><path d="m354.073 108.734h-95.906v471.952h95.906z" transform="matrix(0 .0659718 -.0329859 0 245.846 283.623)"/><path d="m390.827 155.19h-176.045v77.644h176.045z" transform="matrix(0 .0659718 -.0659718 0 249.451 283.842)"/><path d="m354.073 108.734h-95.906v471.952h95.906z" transform="matrix(-.0659718 0 0 -.0329859 246.887 322.973)"/><path d="m390.827 155.19h-176.045v77.644h176.045z" transform="matrix(-.0659718 0 0 -.0659718 246.669 326.578)"/><path d="m354.073 108.734h-95.906v471.952h95.906z" transform="matrix(0 -.0659718 .0329859 0 207.538 324.014)"/><path d="m390.827 155.19h-176.045v77.644h176.045z" transform="matrix(0 -.0659718 .0659718 0 203.933 323.795)"/><path d="m354.073 108.734h-95.906v471.952h95.906z" transform="matrix(.0659718 0 0 .0329859 133.189 284.664)"/><path d="m390.827 155.19h-176.045v77.644h176.045z" transform="matrix(.0659718 0 0 .0659718 133.407 281.059)"/><path d="m354.073 108.734h-95.906v471.952h95.906z" transform="matrix(0 .0659718 -.0329859 0 172.538 283.623)"/><path d="m390.827 155.19h-176.045v77.644h176.045z" transform="matrix(0 .0659718 -.0659718 0 176.143 283.842)"/><path d="m354.073 108.734h-95.906v471.952h95.906z" transform="matrix(-.0659718 0 0 -.0329859 173.579 322.973)"/><path d="m390.827 155.19h-176.045v77.644h176.045z" transform="matrix(-.0659718 0 0 -.0659718 173.361 326.578)"/><path d="m354.073 108.734h-95.906v471.952h95.906z" transform="matrix(0 -.0659718 .0329859 0 134.23 324.014)"/><path d="m390.827 155.19h-176.045v77.644h176.045z" transform="matrix(0 -.0659718 .0659718 0 130.625 323.795)"/><path d="m354.073 108.734h-95.906v471.952h95.906z" transform="matrix(.0659718 0 0 .0329859 499.729 284.664)"/><path d="m390.827 155.19h-176.045v77.644h176.045z" transform="matrix(.0659718 0 0 .0659718 499.947 281.059)"/><path d="m354.073 108.734h-95.906v471.952h95.906z" transform="matrix(0 .0659718 -.0329859 0 539.078 283.623)"/><path d="m390.827 155.19h-176.045v77.644h176.045z" transform="matrix(0 .0659718 -.0659718 0 542.683 283.842)"/><path d="m354.073 108.734h-95.906v471.952h95.906z" transform="matrix(-.0659718 0 0 -.0329859 540.119 322.973)"/><path d="m390.827 155.19h-176.045v77.644h176.045z" transform="matrix(-.0659718 0 0 -.0659718 539.901 326.578)"/><path d="m354.073 108.734h-95.906v471.952h95.906z" transform="matrix(0 -.0659718 .0329859 0 500.77 324.014)"/><path d="m390.827 155.19h-176.045v77.644h176.045z" transform="matrix(0 -.0659718 .0659718 0 497.165 323.795)"/><path d="m354.073 108.734h-95.906v471.952h95.906z" transform="matrix(.0659718 0 0 .0329859 279.805 434.148)"/><path d="m390.827 155.19h-176.045v77.644h176.045z" transform="matrix(.0659718 0 0 .0659718 280.023 430.544)"/><path d="m354.073 108.734h-95.906v471.952h95.906z" transform="matrix(0 .0659718 -.0329859 0 319.154 433.108)"/><path d="m390.827 155.19h-176.045v77.644h176.045z" transform="matrix(0 .0659718 -.0659718 0 322.759 433.326)"/><path d="m354.073 108.734h-95.906v471.952h95.906z" transform="matrix(-.0659718 0 0 -.0329859 320.195 472.457)"/><path d="m390.827 155.19h-176.045v77.644h176.045z" transform="matrix(-.0659718 0 0 -.0659718 319.977 476.062)"/><path d="m354.073 108.734h-95.906v471.952h95.906z" transform="matrix(0 -.0659718 .0329859 0 280.846 473.498)"/><path d="m390.827 155.19h-176.045v77.644h176.045z" transform="matrix(0 -.0659718 .0659718 0 277.241 473.279)"/><path d="m354.073 108.734h-95.906v471.952h95.906z" transform="matrix(.0659718 0 0 .0329859 426.421 434.148)"/><path d="m390.827 155.19h-176.045v77.644h176.045z" transform="matrix(.0659718 0 0 .0659718 426.639 430.544)"/><path d="m354.073 108.734h-95.906v471.952h95.906z" transform="matrix(0 .0659718 -.0329859 0 465.77 433.108)"/><path d="m390.827 155.19h-176.045v77.644h176.045z" transform="matrix(0 .0659718 -.0659718 0 469.375 433.326)"/><path d="m354.073 108.734h-95.906v471.952h95.906z" transform="matrix(-.0659718 0 0 -.0329859 466.811 472.457)"/><path d="m390.827 155.19h-176.045v77.644h176.045z" transform="matrix(-.0659718 0 0 -.0659718 466.593 476.062)"/><path d="m354.073 108.734h-95.906v471.952h95.906z" transform="matrix(0 -.0659718 .0329859 0 427.462 473.498)"/><path d="m390.827 155.19h-176.045v77.644h176.045z" transform="matrix(0 -.0659718 .0659718 0 423.857 473.279)"/><path d="m354.073 108.734h-95.906v471.952h95.906z" transform="matrix(.0659718 0 0 .0329859 353.113 434.148)"/><path d="m390.827 155.19h-176.045v77.644h176.045z" transform="matrix(.0659718 0 0 .0659718 353.331 430.544)"/><path d="m354.073 108.734h-95.906v471.952h95.906z" transform="matrix(0 .0659718 -.0329859 0 392.462 433.108)"/><path d="m390.827 155.19h-176.045v77.644h176.045z" transform="matrix(0 .0659718 -.0659718 0 396.067 433.326)"/><path d="m354.073 108.734h-95.906v471.952h95.906z" transform="matrix(-.0659718 0 0 -.0329859 393.503 472.457)"/><path d="m390.827 155.19h-176.045v77.644h176.045z" transform="matrix(-.0659718 0 0 -.0659718 393.285 476.062)"/><path d="m354.073 108.734h-95.906v471.952h95.906z" transform="matrix(0 -.0659718 .0329859 0 354.154 473.498)"/><path d="m390.827 155.19h-176.045v77.644h176.045z" transform="matrix(0 -.0659718 .0659718 0 350.549 473.279)"/><path d="m354.073 108.734h-95.906v471.952h95.906z" transform="matrix(.0659718 0 0 .0329859 59.8808 434.148)"/><path d="m390.827 155.19h-176.045v77.644h176.045z" transform="matrix(.0659718 0 0 .0659718 60.0995 430.544)"/><path d="m354.073 108.734h-95.906v471.952h95.906z" transform="matrix(0 .0659718 -.0329859 0 99.2305 433.108)"/><path d="m390.827 155.19h-176.045v77.644h176.045z" transform="matrix(0 .0659718 -.0659718 0 102.835 433.326)"/><path d="m354.073 108.734h-95.906v471.952h95.906z" transform="matrix(-.0659718 0 0 -.0329859 100.271 472.457)"/><path d="m390.827 155.19h-176.045v77.644h176.045z" transform="matrix(-.0659718 0 0 -.0659718 100.053 476.062)"/><path d="m354.073 108.734h-95.906v471.952h95.906z" transform="matrix(0 -.0659718 .0329859 0 60.9216 473.498)"/><path d="m390.827 155.19h-176.045v77.644h176.045z" transform="matrix(0 -.0659718 .0659718 0 57.317 473.279)"/><path d="m354.073 108.734h-95.906v471.952h95.906z" transform="matrix(.0659718 0 0 .0329859 206.497 434.148)"/><path d="m390.827 155.19h-176.045v77.644h176.045z" transform="matrix(.0659718 0 0 .0659718 206.715 430.544)"/><path d="m354.073 108.734h-95.906v471.952h95.906z" transform="matrix(0 .0659718 -.0329859 0 245.846 433.108)"/><path d="m390.827 155.19h-176.045v77.644h176.045z" transform="matrix(0 .0659718 -.0659718 0 249.451 433.326)"/><path d="m354.073 108.734h-95.906v471.952h95.906z" transform="matrix(-.0659718 0 0 -.0329859 246.887 472.457)"/><path d="m390.827 155.19h-176.045v77.644h176.045z" transform="matrix(-.0659718 0 0 -.0659718 246.669 476.062)"/><path d="m354.073 108.734h-95.906v471.952h95.906z" transform="matrix(0 -.0659718 .0329859 0 207.538 473.498)"/><path d="m390.827 155.19h-176.045v77.644h176.045z" transform="matrix(0 -.0659718 .0659718 0 203.933 473.279)"/><path d="m354.073 108.734h-95.906v471.952h95.906z" transform="matrix(.0659718 0 0 .0329859 133.189 434.148)"/><path d="m390.827 155.19h-176.045v77.644h176.045z" transform="matrix(.0659718 0 0 .0659718 133.407 430.544)"/><path d="m354.073 108.734h-95.906v471.952h95.906z" transform="matrix(0 .0659718 -.0329859 0 172.538 433.108)"/><path d="m390.827 155.19h-176.045v77.644h176.045z" transform="matrix(0 .0659718 -.0659718 0 176.143 433.326)"/><path d="m354.073 108.734h-95.906v471.952h95.906z" transform="matrix(-.0659718 0 0 -.0329859 173.579 472.457)"/><path d="m390.827 155.19h-176.045v77.644h176.045z" transform="matrix(-.0659718 0 0 -.0659718 173.361 476.062)"/><path d="m354.073 108.734h-95.906v471.952h95.906z" transform="matrix(0 -.0659718 .0329859 0 134.23 473.498)"/><path d="m390.827 155.19h-176.045v77.644h176.045z" transform="matrix(0 -.0659718 .0659718 0 130.625 473.279)"/><path d="m354.073 108.734h-95.906v471.952h95.906z" transform="matrix(.0659718 0 0 .0329859 499.729 434.148)"/><path d="m390.827 155.19h-176.045v77.644h176.045z" transform="matrix(.0659718 0 0 .0659718 499.947 430.544)"/><path d="m354.073 108.734h-95.906v471.952h95.906z" transform="matrix(0 .0659718 -.0329859 0 539.078 433.108)"/><path d="m390.827 155.19h-176.045v77.644h176.045z" transform="matrix(0 .0659718 -.0659718 0 542.683 433.326)"/><path d="m354.073 108.734h-95.906v471.952h95.906z" transform="matrix(-.0659718 0 0 -.0329859 540.119 472.457)"/><path d="m390.827 155.19h-176.045v77.644h176.045z" transform="matrix(-.0659718 0 0 -.0659718 539.901 476.062)"/><path d="m354.073 108.734h-95.906v471.952h95.906z" transform="matrix(0 -.0659718 .0329859 0 500.77 473.498)"/><path d="m390.827 155.19h-176.045v77.644h176.045z" transform="matrix(0 -.0659718 .0659718 0 497.165 473.279)"/><path d="m354.073 108.734h-95.906v471.952h95.906z" transform="matrix(.0659718 0 0 .0329859 279.805 359.406)"/><path d="m390.827 155.19h-176.045v77.644h176.045z" transform="matrix(.0659718 0 0 .0659718 280.023 355.802)"/><path d="m354.073 108.734h-95.906v471.952h95.906z" transform="matrix(0 .0659718 -.0329859 0 319.154 358.365)"/><path d="m390.827 155.19h-176.045v77.644h176.045z" transform="matrix(0 .0659718 -.0659718 0 322.759 358.584)"/><path d="m354.073 108.734h-95.906v471.952h95.906z" transform="matrix(-.0659718 0 0 -.0329859 320.195 397.715)"/><path d="m390.827 155.19h-176.045v77.644h176.045z" transform="matrix(-.0659718 0 0 -.0659718 319.977 401.32)"/><path d="m354.073 108.734h-95.906v471.952h95.906z" transform="matrix(0 -.0659718 .0329859 0 280.846 398.756)"/><path d="m390.827 155.19h-176.045v77.644h176.045z" transform="matrix(0 -.0659718 .0659718 0 277.241 398.537)"/><path d="m354.073 108.734h-95.906v471.952h95.906z" transform="matrix(.0659718 0 0 .0329859 426.421 359.406)"/><path d="m390.827 155.19h-176.045v77.644h176.045z" transform="matrix(.0659718 0 0 .0659718 426.639 355.802)"/><path d="m354.073 108.734h-95.906v471.952h95.906z" transform="matrix(0 .0659718 -.0329859 0 465.77 358.365)"/><path d="m390.827 155.19h-176.045v77.644h176.045z" transform="matrix(0 .0659718 -.0659718 0 469.375 358.584)"/><path d="m354.073 108.734h-95.906v471.952h95.906z" transform="matrix(-.0659718 0 0 -.0329859 466.811 397.715)"/><path d="m390.827 155.19h-176.045v77.644h176.045z" transform="matrix(-.0659718 0 0 -.0659718 466.593 401.32)"/><path d="m354.073 108.734h-95.906v471.952h95.906z" transform="matrix(0 -.0659718 .0329859 0 427.462 398.756)"/><path d="m390.827 155.19h-176.045v77.644h176.045z" transform="matrix(0 -.0659718 .0659718 0 423.857 398.537)"/><path d="m354.073 108.734h-95.906v471.952h95.906z" transform="matrix(.0659718 0 0 .0329859 353.113 359.406)"/><path d="m390.827 155.19h-176.045v77.644h176.045z" transform="matrix(.0659718 0 0 .0659718 353.331 355.802)"/><path d="m354.073 108.734h-95.906v471.952h95.906z" transform="matrix(0 .0659718 -.0329859 0 392.462 358.365)"/><path d="m390.827 155.19h-176.045v77.644h176.045z" transform="matrix(0 .0659718 -.0659718 0 396.067 358.584)"/><path d="m354.073 108.734h-95.906v471.952h95.906z" transform="matrix(-.0659718 0 0 -.0329859 393.503 397.715)"/><path d="m390.827 155.19h-176.045v77.644h176.045z" transform="matrix(-.0659718 0 0 -.0659718 393.285 401.32)"/><path d="m354.073 108.734h-95.906v471.952h95.906z" transform="matrix(0 -.0659718 .0329859 0 354.154 398.756)"/><path d="m390.827 155.19h-176.045v77.644h176.045z" transform="matrix(0 -.0659718 .0659718 0 350.549 398.537)"/><path d="m354.073 108.734h-95.906v471.952h95.906z" transform="matrix(.0659718 0 0 .0329859 59.8808 359.406)"/><path d="m390.827 155.19h-176.045v77.644h176.045z" transform="matrix(.0659718 0 0 .0659718 60.0995 355.802)"/><path d="m354.073 108.734h-95.906v471.952h95.906z" transform="matrix(0 .0659718 -.0329859 0 99.2305 358.365)"/><path d="m390.827 155.19h-176.045v77.644h176.045z" transform="matrix(0 .0659718 -.0659718 0 102.835 358.584)"/><path d="m354.073 108.734h-95.906v471.952h95.906z" transform="matrix(-.0659718 0 0 -.0329859 100.271 397.715)"/><path d="m390.827 155.19h-176.045v77.644h176.045z" transform="matrix(-.0659718 0 0 -.0659718 100.053 401.32)"/><path d="m354.073 108.734h-95.906v471.952h95.906z" transform="matrix(0 -.0659718 .0329859 0 60.9216 398.756)"/><path d="m390.827 155.19h-176.045v77.644h176.045z" transform="matrix(0 -.0659718 .0659718 0 57.317 398.537)"/><path d="m354.073 108.734h-95.906v471.952h95.906z" transform="matrix(.0659718 0 0 .0329859 206.497 359.406)"/><path d="m390.827 155.19h-176.045v77.644h176.045z" transform="matrix(.0659718 0 0 .0659718 206.715 355.802)"/><path d="m354.073 108.734h-95.906v471.952h95.906z" transform="matrix(0 .0659718 -.0329859 0 245.846 358.365)"/><path d="m390.827 155.19h-176.045v77.644h176.045z" transform="matrix(0 .0659718 -.0659718 0 249.451 358.584)"/><path d="m354.073 108.734h-95.906v471.952h95.906z" transform="matrix(-.0659718 0 0 -.0329859 246.887 397.715)"/><path d="m390.827 155.19h-176.045v77.644h176.045z" transform="matrix(-.0659718 0 0 -.0659718 246.669 401.32)"/><path d="m354.073 108.734h-95.906v471.952h95.906z" transform="matrix(0 -.0659718 .0329859 0 207.538 398.756)"/><path d="m390.827 155.19h-176.045v77.644h176.045z" transform="matrix(0 -.0659718 .0659718 0 203.933 398.537)"/><path d="m354.073 108.734h-95.906v471.952h95.906z" transform="matrix(.0659718 0 0 .0329859 133.189 359.406)"/><path d="m390.827 155.19h-176.045v77.644h176.045z" transform="matrix(.0659718 0 0 .0659718 133.407 355.802)"/><path d="m354.073 108.734h-95.906v471.952h95.906z" transform="matrix(0 .0659718 -.0329859 0 172.538 358.365)"/><path d="m390.827 155.19h-176.045v77.644h176.045z" transform="matrix(0 .0659718 -.0659718 0 176.143 358.584)"/><path d="m354.073 108.734h-95.906v471.952h95.906z" transform="matrix(-.0659718 0 0 -.0329859 173.579 397.715)"/><path d="m390.827 155.19h-176.045v77.644h176.045z" transform="matrix(-.0659718 0 0 -.0659718 173.361 401.32)"/><path d="m354.073 108.734h-95.906v471.952h95.906z" transform="matrix(0 -.0659718 .0329859 0 134.23 398.756)"/><path d="m390.827 155.19h-176.045v77.644h176.045z" transform="matrix(0 -.0659718 .0659718 0 130.625 398.537)"/><path d="m354.073 108.734h-95.906v471.952h95.906z" transform="matrix(.0659718 0 0 .0329859 499.729 359.406)"/><path d="m390.827 155.19h-176.045v77.644h176.045z" transform="matrix(.0659718 0 0 .0659718 499.947 355.802)"/><path d="m354.073 108.734h-95.906v471.952h95.906z" transform="matrix(0 .0659718 -.0329859 0 539.078 358.365)"/><path d="m390.827 155.19h-176.045v77.644h176.045z" transform="matrix(0 .0659718 -.0659718 0 542.683 358.584)"/><path d="m354.073 108.734h-95.906v471.952h95.906z" transform="matrix(-.0659718 0 0 -.0329859 540.119 397.715)"/><path d="m390.827 155.19h-176.045v77.644h176.045z" transform="matrix(-.0659718 0 0 -.0659718 539.901 401.32)"/><path d="m354.073 108.734h-95.906v471.952h95.906z" transform="matrix(0 -.0659718 .0329859 0 500.77 398.756)"/><path d="m390.827 155.19h-176.045v77.644h176.045z" transform="matrix(0 -.0659718 .0659718 0 497.165 398.537)"/><path d="m354.073 108.734h-95.906v471.952h95.906z" transform="matrix(.0659718 0 0 .0329859 279.805 60.4375)"/><path d="m390.827 155.19h-176.045v77.644h176.045z" transform="matrix(.0659718 0 0 .0659718 280.023 56.8329)"/><path d="m354.073 108.734h-95.906v471.952h95.906z" transform="matrix(0 .0659718 -.0329859 0 319.154 59.3967)"/><path d="m390.827 155.19h-176.045v77.644h176.045z" transform="matrix(0 .0659718 -.0659718 0 322.759 59.6154)"/><path d="m354.073 108.734h-95.906v471.952h95.906z" transform="matrix(-.0659718 0 0 -.0329859 320.195 98.7464)"/><path d="m390.827 155.19h-176.045v77.644h176.045z" transform="matrix(-.0659718 0 0 -.0659718 319.977 102.351)"/><path d="m354.073 108.734h-95.906v471.952h95.906z" transform="matrix(0 -.0659718 .0329859 0 280.846 99.7873)"/><path d="m390.827 155.19h-176.045v77.644h176.045z" transform="matrix(0 -.0659718 .0659718 0 277.241 99.5685)"/><path d="m354.073 108.734h-95.906v471.952h95.906z" transform="matrix(.0659718 0 0 .0329859 426.421 60.4375)"/><path d="m390.827 155.19h-176.045v77.644h176.045z" transform="matrix(.0659718 0 0 .0659718 426.639 56.8329)"/><path d="m354.073 108.734h-95.906v471.952h95.906z" transform="matrix(0 .0659718 -.0329859 0 465.77 59.3967)"/><path d="m390.827 155.19h-176.045v77.644h176.045z" transform="matrix(0 .0659718 -.0659718 0 469.375 59.6154)"/><path d="m354.073 108.734h-95.906v471.952h95.906z" transform="matrix(-.0659718 0 0 -.0329859 466.811 98.7464)"/><path d="m390.827 155.19h-176.045v77.644h176.045z" transform="matrix(-.0659718 0 0 -.0659718 466.593 102.351)"/><path d="m354.073 108.734h-95.906v471.952h95.906z" transform="matrix(0 -.0659718 .0329859 0 427.462 99.7873)"/><path d="m390.827 155.19h-176.045v77.644h176.045z" transform="matrix(0 -.0659718 .0659718 0 423.857 99.5685)"/><path d="m354.073 108.734h-95.906v471.952h95.906z" transform="matrix(.0659718 0 0 .0329859 353.113 60.4375)"/><path d="m390.827 155.19h-176.045v77.644h176.045z" transform="matrix(.0659718 0 0 .0659718 353.331 56.8329)"/><path d="m354.073 108.734h-95.906v471.952h95.906z" transform="matrix(0 .0659718 -.0329859 0 392.462 59.3967)"/><path d="m390.827 155.19h-176.045v77.644h176.045z" transform="matrix(0 .0659718 -.0659718 0 396.067 59.6154)"/><path d="m354.073 108.734h-95.906v471.952h95.906z" transform="matrix(-.0659718 0 0 -.0329859 393.503 98.7464)"/><path d="m390.827 155.19h-176.045v77.644h176.045z" transform="matrix(-.0659718 0 0 -.0659718 393.285 102.351)"/><path d="m354.073 108.734h-95.906v471.952h95.906z" transform="matrix(0 -.0659718 .0329859 0 354.154 99.7873)"/><path d="m390.827 155.19h-176.045v77.644h176.045z" transform="matrix(0 -.0659718 .0659718 0 350.549 99.5685)"/><path d="m354.073 108.734h-95.906v471.952h95.906z" transform="matrix(.0659718 0 0 .0329859 59.8808 60.4375)"/><path d="m390.827 155.19h-176.045v77.644h176.045z" transform="matrix(.0659718 0 0 .0659718 60.0995 56.8329)"/><path d="m354.073 108.734h-95.906v471.952h95.906z" transform="matrix(0 .0659718 -.0329859 0 99.2305 59.3967)"/><path d="m390.827 155.19h-176.045v77.644h176.045z" transform="matrix(0 .0659718 -.0659718 0 102.835 59.6154)"/><path d="m354.073 108.734h-95.906v471.952h95.906z" transform="matrix(-.0659718 0 0 -.0329859 100.271 98.7464)"/><path d="m390.827 155.19h-176.045v77.644h176.045z" transform="matrix(-.0659718 0 0 -.0659718 100.053 102.351)"/><path d="m354.073 108.734h-95.906v471.952h95.906z" transform="matrix(0 -.0659718 .0329859 0 60.9216 99.7873)"/><path d="m390.827 155.19h-176.045v77.644h176.045z" transform="matrix(0 -.0659718 .0659718 0 57.317 99.5685)"/><path d="m354.073 108.734h-95.906v471.952h95.906z" transform="matrix(.0659718 0 0 .0329859 206.497 60.4375)"/><path d="m390.827 155.19h-176.045v77.644h176.045z" transform="matrix(.0659718 0 0 .0659718 206.715 56.8329)"/><path d="m354.073 108.734h-95.906v471.952h95.906z" transform="matrix(0 .0659718 -.0329859 0 245.846 59.3967)"/><path d="m390.827 155.19h-176.045v77.644h176.045z" transform="matrix(0 .0659718 -.0659718 0 249.451 59.6154)"/><path d="m354.073 108.734h-95.906v471.952h95.906z" transform="matrix(-.0659718 0 0 -.0329859 246.887 98.7464)"/><path d="m390.827 155.19h-176.045v77.644h176.045z" transform="matrix(-.0659718 0 0 -.0659718 246.669 102.351)"/><path d="m354.073 108.734h-95.906v471.952h95.906z" transform="matrix(0 -.0659718 .0329859 0 207.538 99.7873)"/><path d="m390.827 155.19h-176.045v77.644h176.045z" transform="matrix(0 -.0659718 .0659718 0 203.933 99.5685)"/><path d="m354.073 108.734h-95.906v471.952h95.906z" transform="matrix(.0659718 0 0 .0329859 133.189 60.4375)"/><path d="m390.827 155.19h-176.045v77.644h176.045z" transform="matrix(.0659718 0 0 .0659718 133.407 56.8329)"/><path d="m354.073 108.734h-95.906v471.952h95.906z" transform="matrix(0 .0659718 -.0329859 0 172.538 59.3967)"/><path d="m390.827 155.19h-176.045v77.644h176.045z" transform="matrix(0 .0659718 -.0659718 0 176.143 59.6154)"/><path d="m354.073 108.734h-95.906v471.952h95.906z" transform="matrix(-.0659718 0 0 -.0329859 173.579 98.7464)"/><path d="m390.827 155.19h-176.045v77.644h176.045z" transform="matrix(-.0659718 0 0 -.0659718 173.361 102.351)"/><path d="m354.073 108.734h-95.906v471.952h95.906z" transform="matrix(0 -.0659718 .0329859 0 134.23 99.7873)"/><path d="m390.827 155.19h-176.045v77.644h176.045z" transform="matrix(0 -.0659718 .0659718 0 130.625 99.5685)"/><path d="m354.073 108.734h-95.906v471.952h95.906z" transform="matrix(.0659718 0 0 .0329859 499.729 60.4375)"/><path d="m390.827 155.19h-176.045v77.644h176.045z" transform="matrix(.0659718 0 0 .0659718 499.947 56.8329)"/><path d="m354.073 108.734h-95.906v471.952h95.906z" transform="matrix(0 .0659718 -.0329859 0 539.078 59.3967)"/><path d="m390.827 155.19h-176.045v77.644h176.045z" transform="matrix(0 .0659718 -.0659718 0 542.683 59.6154)"/><path d="m354.073 108.734h-95.906v471.952h95.906z" transform="matrix(-.0659718 0 0 -.0329859 540.119 98.7464)"/><path d="m390.827 155.19h-176.045v77.644h176.045z" transform="matrix(-.0659718 0 0 -.0659718 539.901 102.351)"/><path d="m354.073 108.734h-95.906v471.952h95.906z" transform="matrix(0 -.0659718 .0329859 0 500.77 99.7873)"/><path d="m390.827 155.19h-176.045v77.644h176.045z" transform="matrix(0 -.0659718 .0659718 0 497.165 99.5685)"/><path d="m354.073 108.734h-95.906v471.952h95.906z" transform="matrix(.0659718 0 0 .0329859 279.805 209.922)"/><path d="m390.827 155.19h-176.045v77.644h176.045z" transform="matrix(.0659718 0 0 .0659718 280.023 206.317)"/><path d="m354.073 108.734h-95.906v471.952h95.906z" transform="matrix(0 .0659718 -.0329859 0 319.154 208.881)"/><path d="m390.827 155.19h-176.045v77.644h176.045z" transform="matrix(0 .0659718 -.0659718 0 322.759 209.1)"/><path d="m354.073 108.734h-95.906v471.952h95.906z" transform="matrix(-.0659718 0 0 -.0329859 320.195 248.231)"/><path d="m390.827 155.19h-176.045v77.644h176.045z" transform="matrix(-.0659718 0 0 -.0659718 319.977 251.835)"/><path d="m354.073 108.734h-95.906v471.952h95.906z" transform="matrix(0 -.0659718 .0329859 0 280.846 249.272)"/><path d="m390.827 155.19h-176.045v77.644h176.045z" transform="matrix(0 -.0659718 .0659718 0 277.241 249.053)"/><path d="m354.073 108.734h-95.906v471.952h95.906z" transform="matrix(.0659718 0 0 .0329859 426.421 209.922)"/><path d="m390.827 155.19h-176.045v77.644h176.045z" transform="matrix(.0659718 0 0 .0659718 426.639 206.317)"/><path d="m354.073 108.734h-95.906v471.952h95.906z" transform="matrix(0 .0659718 -.0329859 0 465.77 208.881)"/><path d="m390.827 155.19h-176.045v77.644h176.045z" transform="matrix(0 .0659718 -.0659718 0 469.375 209.1)"/><path d="m354.073 108.734h-95.906v471.952h95.906z" transform="matrix(-.0659718 0 0 -.0329859 466.811 248.231)"/><path d="m390.827 155.19h-176.045v77.644h176.045z" transform="matrix(-.0659718 0 0 -.0659718 466.593 251.835)"/><path d="m354.073 108.734h-95.906v471.952h95.906z" transform="matrix(0 -.0659718 .0329859 0 427.462 249.272)"/><path d="m390.827 155.19h-176.045v77.644h176.045z" transform="matrix(0 -.0659718 .0659718 0 423.857 249.053)"/><path d="m354.073 108.734h-95.906v471.952h95.906z" transform="matrix(.0659718 0 0 .0329859 353.113 209.922)"/><path d="m390.827 155.19h-176.045v77.644h176.045z" transform="matrix(.0659718 0 0 .0659718 353.331 206.317)"/><path d="m354.073 108.734h-95.906v471.952h95.906z" transform="matrix(0 .0659718 -.0329859 0 392.462 208.881)"/><path d="m390.827 155.19h-176.045v77.644h176.045z" transform="matrix(0 .0659718 -.0659718 0 396.067 209.1)"/><path d="m354.073 108.734h-95.906v471.952h95.906z" transform="matrix(-.0659718 0 0 -.0329859 393.503 248.231)"/><path d="m390.827 155.19h-176.045v77.644h176.045z" transform="matrix(-.0659718 0 0 -.0659718 393.285 251.835)"/><path d="m354.073 108.734h-95.906v471.952h95.906z" transform="matrix(0 -.0659718 .0329859 0 354.154 249.272)"/><path d="m390.827 155.19h-176.045v77.644h176.045z" transform="matrix(0 -.0659718 .0659718 0 350.549 249.053)"/><path d="m354.073 108.734h-95.906v471.952h95.906z" transform="matrix(.0659718 0 0 .0329859 59.8808 209.922)"/><path d="m390.827 155.19h-176.045v77.644h176.045z" transform="matrix(.0659718 0 0 .0659718 60.0995 206.317)"/><path d="m354.073 108.734h-95.906v471.952h95.906z" transform="matrix(0 .0659718 -.0329859 0 99.2305 208.881)"/><path d="m390.827 155.19h-176.045v77.644h176.045z" transform="matrix(0 .0659718 -.0659718 0 102.835 209.1)"/><path d="m354.073 108.734h-95.906v471.952h95.906z" transform="matrix(-.0659718 0 0 -.0329859 100.271 248.231)"/><path d="m390.827 155.19h-176.045v77.644h176.045z" transform="matrix(-.0659718 0 0 -.0659718 100.053 251.835)"/><path d="m354.073 108.734h-95.906v471.952h95.906z" transform="matrix(0 -.0659718 .0329859 0 60.9216 249.272)"/><path d="m390.827 155.19h-176.045v77.644h176.045z" transform="matrix(0 -.0659718 .0659718 0 57.317 249.053)"/><path d="m354.073 108.734h-95.906v471.952h95.906z" transform="matrix(.0659718 0 0 .0329859 206.497 209.922)"/><path d="m390.827 155.19h-176.045v77.644h176.045z" transform="matrix(.0659718 0 0 .0659718 206.715 206.317)"/><path d="m354.073 108.734h-95.906v471.952h95.906z" transform="matrix(0 .0659718 -.0329859 0 245.846 208.881)"/><path d="m390.827 155.19h-176.045v77.644h176.045z" transform="matrix(0 .0659718 -.0659718 0 249.451 209.1)"/><path d="m354.073 108.734h-95.906v471.952h95.906z" transform="matrix(-.0659718 0 0 -.0329859 246.887 248.231)"/><path d="m390.827 155.19h-176.045v77.644h176.045z" transform="matrix(-.0659718 0 0 -.0659718 246.669 251.835)"/><path d="m354.073 108.734h-95.906v471.952h95.906z" transform="matrix(0 -.0659718 .0329859 0 207.538 249.272)"/><path d="m390.827 155.19h-176.045v77.644h176.045z" transform="matrix(0 -.0659718 .0659718 0 203.933 249.053)"/><path d="m354.073 108.734h-95.906v471.952h95.906z" transform="matrix(.0659718 0 0 .0329859 133.189 209.922)"/><path d="m390.827 155.19h-176.045v77.644h176.045z" transform="matrix(.0659718 0 0 .0659718 133.407 206.317)"/><path d="m354.073 108.734h-95.906v471.952h95.906z" transform="matrix(0 .0659718 -.0329859 0 172.538 208.881)"/><path d="m390.827 155.19h-176.045v77.644h176.045z" transform="matrix(0 .0659718 -.0659718 0 176.143 209.1)"/><path d="m354.073 108.734h-95.906v471.952h95.906z" transform="matrix(-.0659718 0 0 -.0329859 173.579 248.231)"/><path d="m390.827 155.19h-176.045v77.644h176.045z" transform="matrix(-.0659718 0 0 -.0659718 173.361 251.835)"/><path d="m354.073 108.734h-95.906v471.952h95.906z" transform="matrix(0 -.0659718 .0329859 0 134.23 249.272)"/><path d="m390.827 155.19h-176.045v77.644h176.045z" transform="matrix(0 -.0659718 .0659718 0 130.625 249.053)"/><path d="m354.073 108.734h-95.906v471.952h95.906z" transform="matrix(.0659718 0 0 .0329859 499.729 209.922)"/><path d="m390.827 155.19h-176.045v77.644h176.045z" transform="matrix(.0659718 0 0 .0659718 499.947 206.317)"/><path d="m354.073 108.734h-95.906v471.952h95.906z" transform="matrix(0 .0659718 -.0329859 0 539.078 208.881)"/><path d="m390.827 155.19h-176.045v77.644h176.045z" transform="matrix(0 .0659718 -.0659718 0 542.683 209.1)"/><path d="m354.073 108.734h-95.906v471.952h95.906z" transform="matrix(-.0659718 0 0 -.0329859 540.119 248.231)"/><path d="m390.827 155.19h-176.045v77.644h176.045z" transform="matrix(-.0659718 0 0 -.0659718 539.901 251.835)"/><path d="m354.073 108.734h-95.906v471.952h95.906z" transform="matrix(0 -.0659718 .0329859 0 500.77 249.272)"/><path d="m390.827 155.19h-176.045v77.644h176.045z" transform="matrix(0 -.0659718 .0659718 0 497.165 249.053)"/><path d="m354.073 108.734h-95.906v471.952h95.906z" transform="matrix(.0659718 0 0 .0329859 279.805 135.18)"/><path d="m390.827 155.19h-176.045v77.644h176.045z" transform="matrix(.0659718 0 0 .0659718 280.023 131.575)"/><path d="m354.073 108.734h-95.906v471.952h95.906z" transform="matrix(0 .0659718 -.0329859 0 319.154 134.139)"/><path d="m390.827 155.19h-176.045v77.644h176.045z" transform="matrix(0 .0659718 -.0659718 0 322.759 134.358)"/><path d="m354.073 108.734h-95.906v471.952h95.906z" transform="matrix(-.0659718 0 0 -.0329859 320.195 173.489)"/><path d="m390.827 155.19h-176.045v77.644h176.045z" transform="matrix(-.0659718 0 0 -.0659718 319.977 177.093)"/><path d="m354.073 108.734h-95.906v471.952h95.906z" transform="matrix(0 -.0659718 .0329859 0 280.846 174.529)"/><path d="m390.827 155.19h-176.045v77.644h176.045z" transform="matrix(0 -.0659718 .0659718 0 277.241 174.311)"/><path d="m354.073 108.734h-95.906v471.952h95.906z" transform="matrix(.0659718 0 0 .0329859 426.421 135.18)"/><path d="m390.827 155.19h-176.045v77.644h176.045z" transform="matrix(.0659718 0 0 .0659718 426.639 131.575)"/><path d="m354.073 108.734h-95.906v471.952h95.906z" transform="matrix(0 .0659718 -.0329859 0 465.77 134.139)"/><path d="m390.827 155.19h-176.045v77.644h176.045z" transform="matrix(0 .0659718 -.0659718 0 469.375 134.358)"/><path d="m354.073 108.734h-95.906v471.952h95.906z" transform="matrix(-.0659718 0 0 -.0329859 466.811 173.489)"/><path d="m390.827 155.19h-176.045v77.644h176.045z" transform="matrix(-.0659718 0 0 -.0659718 466.593 177.093)"/><path d="m354.073 108.734h-95.906v471.952h95.906z" transform="matrix(0 -.0659718 .0329859 0 427.462 174.529)"/><path d="m390.827 155.19h-176.045v77.644h176.045z" transform="matrix(0 -.0659718 .0659718 0 423.857 174.311)"/><path d="m354.073 108.734h-95.906v471.952h95.906z" transform="matrix(.0659718 0 0 .0329859 353.113 135.18)"/><path d="m390.827 155.19h-176.045v77.644h176.045z" transform="matrix(.0659718 0 0 .0659718 353.331 131.575)"/><path d="m354.073 108.734h-95.906v471.952h95.906z" transform="matrix(0 .0659718 -.0329859 0 392.462 134.139)"/><path d="m390.827 155.19h-176.045v77.644h176.045z" transform="matrix(0 .0659718 -.0659718 0 396.067 134.358)"/><path d="m354.073 108.734h-95.906v471.952h95.906z" transform="matrix(-.0659718 0 0 -.0329859 393.503 173.489)"/><path d="m390.827 155.19h-176.045v77.644h176.045z" transform="matrix(-.0659718 0 0 -.0659718 393.285 177.093)"/><path d="m354.073 108.734h-95.906v471.952h95.906z" transform="matrix(0 -.0659718 .0329859 0 354.154 174.529)"/><path d="m390.827 155.19h-176.045v77.644h176.045z" transform="matrix(0 -.0659718 .0659718 0 350.549 174.311)"/><path d="m354.073 108.734h-95.906v471.952h95.906z" transform="matrix(.0659718 0 0 .0329859 59.8808 135.18)"/><path d="m390.827 155.19h-176.045v77.644h176.045z" transform="matrix(.0659718 0 0 .0659718 60.0995 131.575)"/><path d="m354.073 108.734h-95.906v471.952h95.906z" transform="matrix(0 .0659718 -.0329859 0 99.2305 134.139)"/><path d="m390.827 155.19h-176.045v77.644h176.045z" transform="matrix(0 .0659718 -.0659718 0 102.835 134.358)"/><path d="m354.073 108.734h-95.906v471.952h95.906z" transform="matrix(-.0659718 0 0 -.0329859 100.271 173.489)"/><path d="m390.827 155.19h-176.045v77.644h176.045z" transform="matrix(-.0659718 0 0 -.0659718 100.053 177.093)"/><path d="m354.073 108.734h-95.906v471.952h95.906z" transform="matrix(0 -.0659718 .0329859 0 60.9216 174.529)"/><path d="m390.827 155.19h-176.045v77.644h176.045z" transform="matrix(0 -.0659718 .0659718 0 57.317 174.311)"/><path d="m354.073 108.734h-95.906v471.952h95.906z" transform="matrix(.0659718 0 0 .0329859 206.497 135.18)"/><path d="m390.827 155.19h-176.045v77.644h176.045z" transform="matrix(.0659718 0 0 .0659718 206.715 131.575)"/><path d="m354.073 108.734h-95.906v471.952h95.906z" transform="matrix(0 .0659718 -.0329859 0 245.846 134.139)"/><path d="m390.827 155.19h-176.045v77.644h176.045z" transform="matrix(0 .0659718 -.0659718 0 249.451 134.358)"/><path d="m354.073 108.734h-95.906v471.952h95.906z" transform="matrix(-.0659718 0 0 -.0329859 246.887 173.489)"/><path d="m390.827 155.19h-176.045v77.644h176.045z" transform="matrix(-.0659718 0 0 -.0659718 246.669 177.093)"/><path d="m354.073 108.734h-95.906v471.952h95.906z" transform="matrix(0 -.0659718 .0329859 0 207.538 174.529)"/><path d="m390.827 155.19h-176.045v77.644h176.045z" transform="matrix(0 -.0659718 .0659718 0 203.933 174.311)"/><path d="m354.073 108.734h-95.906v471.952h95.906z" transform="matrix(.0659718 0 0 .0329859 133.189 135.18)"/><path d="m390.827 155.19h-176.045v77.644h176.045z" transform="matrix(.0659718 0 0 .0659718 133.407 131.575)"/><path d="m354.073 108.734h-95.906v471.952h95.906z" transform="matrix(0 .0659718 -.0329859 0 172.538 134.139)"/><path d="m390.827 155.19h-176.045v77.644h176.045z" transform="matrix(0 .0659718 -.0659718 0 176.143 134.358)"/><path d="m354.073 108.734h-95.906v471.952h95.906z" transform="matrix(-.0659718 0 0 -.0329859 173.579 173.489)"/><path d="m390.827 155.19h-176.045v77.644h176.045z" transform="matrix(-.0659718 0 0 -.0659718 173.361 177.093)"/><path d="m354.073 108.734h-95.906v471.952h95.906z" transform="matrix(0 -.0659718 .0329859 0 134.23 174.529)"/><path d="m390.827 155.19h-176.045v77.644h176.045z" transform="matrix(0 -.0659718 .0659718 0 130.625 174.311)"/><path d="m354.073 108.734h-95.906v471.952h95.906z" transform="matrix(.0659718 0 0 .0329859 499.729 135.18)"/><path d="m390.827 155.19h-176.045v77.644h176.045z" transform="matrix(.0659718 0 0 .0659718 499.947 131.575)"/><path d="m354.073 108.734h-95.906v471.952h95.906z" transform="matrix(0 .0659718 -.0329859 0 539.078 134.139)"/><path d="m390.827 155.19h-176.045v77.644h176.045z" transform="matrix(0 .0659718 -.0659718 0 542.683 134.358)"/><path d="m354.073 108.734h-95.906v471.952h95.906z" transform="matrix(-.0659718 0 0 -.0329859 540.119 173.489)"/><path d="m390.827 155.19h-176.045v77.644h176.045z" transform="matrix(-.0659718 0 0 -.0659718 539.901 177.093)"/><path d="m354.073 108.734h-95.906v471.952h95.906z" transform="matrix(0 -.0659718 .0329859 0 500.77 174.529)"/><path d="m390.827 155.19h-176.045v77.644h176.045z" transform="matrix(0 -.0659718 .0659718 0 497.165 174.311)"/><path d="m354.073 108.734h-95.906v471.952h95.906z" transform="matrix(.0659718 0 0 .0329859 279.805 508.891)"/><path d="m390.827 155.19h-176.045v77.644h176.045z" transform="matrix(.0659718 0 0 .0659718 280.023 505.286)"/><path d="m354.073 108.734h-95.906v471.952h95.906z" transform="matrix(0 .0659718 -.0329859 0 319.154 507.85)"/><path d="m390.827 155.19h-176.045v77.644h176.045z" transform="matrix(0 .0659718 -.0659718 0 322.759 508.068)"/><path d="m354.073 108.734h-95.906v471.952h95.906z" transform="matrix(-.0659718 0 0 -.0329859 320.195 547.199)"/><path d="m390.827 155.19h-176.045v77.644h176.045z" transform="matrix(-.0659718 0 0 -.0659718 319.977 550.804)"/><path d="m354.073 108.734h-95.906v471.952h95.906z" transform="matrix(0 -.0659718 .0329859 0 280.846 548.24)"/><path d="m390.827 155.19h-176.045v77.644h176.045z" transform="matrix(0 -.0659718 .0659718 0 277.241 548.022)"/><path d="m354.073 108.734h-95.906v471.952h95.906z" transform="matrix(.0659718 0 0 .0329859 426.421 508.891)"/><path d="m390.827 155.19h-176.045v77.644h176.045z" transform="matrix(.0659718 0 0 .0659718 426.639 505.286)"/><path d="m354.073 108.734h-95.906v471.952h95.906z" transform="matrix(0 .0659718 -.0329859 0 465.77 507.85)"/><path d="m390.827 155.19h-176.045v77.644h176.045z" transform="matrix(0 .0659718 -.0659718 0 469.375 508.068)"/><path d="m354.073 108.734h-95.906v471.952h95.906z" transform="matrix(-.0659718 0 0 -.0329859 466.811 547.199)"/><path d="m390.827 155.19h-176.045v77.644h176.045z" transform="matrix(-.0659718 0 0 -.0659718 466.593 550.804)"/><path d="m354.073 108.734h-95.906v471.952h95.906z" transform="matrix(0 -.0659718 .0329859 0 427.462 548.24)"/><path d="m390.827 155.19h-176.045v77.644h176.045z" transform="matrix(0 -.0659718 .0659718 0 423.857 548.022)"/><path d="m354.073 108.734h-95.906v471.952h95.906z" transform="matrix(.0659718 0 0 .0329859 353.113 508.891)"/><path d="m390.827 155.19h-176.045v77.644h176.045z" transform="matrix(.0659718 0 0 .0659718 353.331 505.286)"/><path d="m354.073 108.734h-95.906v471.952h95.906z" transform="matrix(0 .0659718 -.0329859 0 392.462 507.85)"/><path d="m390.827 155.19h-176.045v77.644h176.045z" transform="matrix(0 .0659718 -.0659718 0 396.067 508.068)"/><path d="m354.073 108.734h-95.906v471.952h95.906z" transform="matrix(-.0659718 0 0 -.0329859 393.503 547.199)"/><path d="m390.827 155.19h-176.045v77.644h176.045z" transform="matrix(-.0659718 0 0 -.0659718 393.285 550.804)"/><path d="m354.073 108.734h-95.906v471.952h95.906z" transform="matrix(0 -.0659718 .0329859 0 354.154 548.24)"/><path d="m390.827 155.19h-176.045v77.644h176.045z" transform="matrix(0 -.0659718 .0659718 0 350.549 548.022)"/><path d="m354.073 108.734h-95.906v471.952h95.906z" transform="matrix(.0659718 0 0 .0329859 59.8808 508.891)"/><path d="m390.827 155.19h-176.045v77.644h176.045z" transform="matrix(.0659718 0 0 .0659718 60.0995 505.286)"/><path d="m354.073 108.734h-95.906v471.952h95.906z" transform="matrix(0 .0659718 -.0329859 0 99.2305 507.85)"/><path d="m390.827 155.19h-176.045v77.644h176.045z" transform="matrix(0 .0659718 -.0659718 0 102.835 508.068)"/><path d="m354.073 108.734h-95.906v471.952h95.906z" transform="matrix(-.0659718 0 0 -.0329859 100.271 547.199)"/><path d="m390.827 155.19h-176.045v77.644h176.045z" transform="matrix(-.0659718 0 0 -.0659718 100.053 550.804)"/><path d="m354.073 108.734h-95.906v471.952h95.906z" transform="matrix(0 -.0659718 .0329859 0 60.9216 548.24)"/><path d="m390.827 155.19h-176.045v77.644h176.045z" transform="matrix(0 -.0659718 .0659718 0 57.317 548.022)"/><path d="m354.073 108.734h-95.906v471.952h95.906z" transform="matrix(.0659718 0 0 .0329859 206.497 508.891)"/><path d="m390.827 155.19h-176.045v77.644h176.045z" transform="matrix(.0659718 0 0 .0659718 206.715 505.286)"/><path d="m354.073 108.734h-95.906v471.952h95.906z" transform="matrix(0 .0659718 -.0329859 0 245.846 507.85)"/><path d="m390.827 155.19h-176.045v77.644h176.045z" transform="matrix(0 .0659718 -.0659718 0 249.451 508.068)"/><path d="m354.073 108.734h-95.906v471.952h95.906z" transform="matrix(-.0659718 0 0 -.0329859 246.887 547.199)"/><path d="m390.827 155.19h-176.045v77.644h176.045z" transform="matrix(-.0659718 0 0 -.0659718 246.669 550.804)"/><path d="m354.073 108.734h-95.906v471.952h95.906z" transform="matrix(0 -.0659718 .0329859 0 207.538 548.24)"/><path d="m390.827 155.19h-176.045v77.644h176.045z" transform="matrix(0 -.0659718 .0659718 0 203.933 548.022)"/><path d="m354.073 108.734h-95.906v471.952h95.906z" transform="matrix(.0659718 0 0 .0329859 133.189 508.891)"/><path d="m390.827 155.19h-176.045v77.644h176.045z" transform="matrix(.0659718 0 0 .0659718 133.407 505.286)"/><path d="m354.073 108.734h-95.906v471.952h95.906z" transform="matrix(0 .0659718 -.0329859 0 172.538 507.85)"/><path d="m390.827 155.19h-176.045v77.644h176.045z" transform="matrix(0 .0659718 -.0659718 0 176.143 508.068)"/><path d="m354.073 108.734h-95.906v471.952h95.906z" transform="matrix(-.0659718 0 0 -.0329859 173.579 547.199)"/><path d="m390.827 155.19h-176.045v77.644h176.045z" transform="matrix(-.0659718 0 0 -.0659718 173.361 550.804)"/><path d="m354.073 108.734h-95.906v471.952h95.906z" transform="matrix(0 -.0659718 .0329859 0 134.23 548.24)"/><path d="m390.827 155.19h-176.045v77.644h176.045z" transform="matrix(0 -.0659718 .0659718 0 130.625 548.022)"/><path d="m354.073 108.734h-95.906v471.952h95.906z" transform="matrix(.0659718 0 0 .0329859 499.729 508.891)"/><path d="m390.827 155.19h-176.045v77.644h176.045z" transform="matrix(.0659718 0 0 .0659718 499.947 505.286)"/><path d="m354.073 108.734h-95.906v471.952h95.906z" transform="matrix(0 .0659718 -.0329859 0 539.078 507.85)"/><path d="m390.827 155.19h-176.045v77.644h176.045z" transform="matrix(0 .0659718 -.0659718 0 542.683 508.068)"/><path d="m354.073 108.734h-95.906v471.952h95.906z" transform="matrix(-.0659718 0 0 -.0329859 540.119 547.199)"/><path d="m390.827 155.19h-176.045v77.644h176.045z" transform="matrix(-.0659718 0 0 -.0659718 539.901 550.804)"/><path d="m354.073 108.734h-95.906v471.952h95.906z" transform="matrix(0 -.0659718 .0329859 0 500.77 548.24)"/><path d="m390.827 155.19h-176.045v77.644h176.045z" transform="matrix(0 -.0659718 .0659718 0 497.165 548.022)"/></g></svg>